<mxfile host="app.diagrams.net" modified="2021-07-27T15:16:32.578Z" agent="5.0 (Macintosh; Intel Mac OS X 10_15_7) AppleWebKit/537.36 (KHTML, like Gecko) Chrome/91.0.4472.114 Safari/537.36" etag="-71MFuHMW6ngPrh2rJ5c" version="14.9.0" type="github">
  <diagram id="xTm7eNPgcMcKmOQ4rqYY" name="Page-1">
    <mxGraphModel dx="1426" dy="2090" grid="1" gridSize="10" guides="1" tooltips="1" connect="1" arrows="1" fold="1" page="1" pageScale="1" pageWidth="827" pageHeight="1169" math="0" shadow="0">
      <root>
        <mxCell id="0" />
        <mxCell id="1" parent="0" />
        <mxCell id="TrryVYuE3cqbA7kc2MsO-43" value="Server" style="shape=umlFrame;whiteSpace=wrap;html=1;" vertex="1" parent="1">
          <mxGeometry x="840" y="-10" width="260" height="480" as="geometry" />
        </mxCell>
        <mxCell id="TrryVYuE3cqbA7kc2MsO-42" value="web worker" style="shape=umlFrame;whiteSpace=wrap;html=1;" vertex="1" parent="1">
          <mxGeometry x="540" y="-10" width="260" height="480" as="geometry" />
        </mxCell>
        <mxCell id="TrryVYuE3cqbA7kc2MsO-6" value=":Emitter" style="shape=umlLifeline;perimeter=lifelinePerimeter;whiteSpace=wrap;html=1;container=1;collapsible=0;recursiveResize=0;outlineConnect=0;" vertex="1" parent="1">
          <mxGeometry x="80" y="40" width="120" height="300" as="geometry" />
        </mxCell>
        <mxCell id="TrryVYuE3cqbA7kc2MsO-8" value="Analytics::Collector" style="shape=umlLifeline;perimeter=lifelinePerimeter;whiteSpace=wrap;html=1;container=1;collapsible=0;recursiveResize=0;outlineConnect=0;" vertex="1" parent="1">
          <mxGeometry x="240" y="40" width="120" height="300" as="geometry" />
        </mxCell>
        <mxCell id="TrryVYuE3cqbA7kc2MsO-9" value="&lt;span&gt;Analytics::Storage&lt;/span&gt;" style="shape=umlLifeline;perimeter=lifelinePerimeter;whiteSpace=wrap;html=1;container=1;collapsible=0;recursiveResize=0;outlineConnect=0;" vertex="1" parent="1">
          <mxGeometry x="400" y="40" width="120" height="730" as="geometry" />
        </mxCell>
        <mxCell id="TrryVYuE3cqbA7kc2MsO-10" value="&lt;span&gt;Analytics::T&lt;/span&gt;&lt;span&gt;ransmitter&lt;br&gt;&lt;/span&gt;" style="shape=umlLifeline;perimeter=lifelinePerimeter;whiteSpace=wrap;html=1;container=1;collapsible=0;recursiveResize=0;outlineConnect=0;" vertex="1" parent="1">
          <mxGeometry x="610" y="40" width="120" height="730" as="geometry" />
        </mxCell>
        <mxCell id="TrryVYuE3cqbA7kc2MsO-30" style="edgeStyle=elbowEdgeStyle;rounded=0;orthogonalLoop=1;jettySize=auto;elbow=vertical;html=1;dashed=1;startArrow=none;startFill=0;exitX=0;exitY=0.917;exitDx=0;exitDy=0;exitPerimeter=0;" edge="1" parent="1">
          <mxGeometry relative="1" as="geometry">
            <mxPoint x="295" y="225.01999999999998" as="sourcePoint" />
            <mxPoint x="139.5" y="225" as="targetPoint" />
          </mxGeometry>
        </mxCell>
        <mxCell id="TrryVYuE3cqbA7kc2MsO-11" value="" style="html=1;points=[];perimeter=orthogonalPerimeter;" vertex="1" parent="1">
          <mxGeometry x="295" y="120" width="10" height="110" as="geometry" />
        </mxCell>
        <mxCell id="TrryVYuE3cqbA7kc2MsO-12" value="dispatch(data)" style="html=1;verticalAlign=bottom;startArrow=none;endArrow=block;startSize=8;edgeStyle=elbowEdgeStyle;elbow=vertical;entryX=-0.2;entryY=0.05;entryDx=0;entryDy=0;entryPerimeter=0;startFill=0;" edge="1" target="TrryVYuE3cqbA7kc2MsO-11" parent="1" source="TrryVYuE3cqbA7kc2MsO-6">
          <mxGeometry relative="1" as="geometry">
            <mxPoint x="235" y="120" as="sourcePoint" />
          </mxGeometry>
        </mxCell>
        <mxCell id="TrryVYuE3cqbA7kc2MsO-29" style="edgeStyle=elbowEdgeStyle;rounded=0;orthogonalLoop=1;jettySize=auto;elbow=vertical;html=1;startArrow=none;startFill=0;dashed=1;" edge="1" parent="1" source="TrryVYuE3cqbA7kc2MsO-13">
          <mxGeometry relative="1" as="geometry">
            <mxPoint x="306" y="220" as="targetPoint" />
          </mxGeometry>
        </mxCell>
        <mxCell id="TrryVYuE3cqbA7kc2MsO-13" value="" style="html=1;points=[];perimeter=orthogonalPerimeter;" vertex="1" parent="1">
          <mxGeometry x="455" y="180" width="10" height="50" as="geometry" />
        </mxCell>
        <mxCell id="TrryVYuE3cqbA7kc2MsO-14" value="push" style="html=1;verticalAlign=bottom;startArrow=none;endArrow=block;startSize=8;edgeStyle=elbowEdgeStyle;elbow=vertical;entryX=-0.1;entryY=0.088;entryDx=0;entryDy=0;entryPerimeter=0;startFill=0;" edge="1" target="TrryVYuE3cqbA7kc2MsO-13" parent="1">
          <mxGeometry relative="1" as="geometry">
            <mxPoint x="305" y="184" as="sourcePoint" />
          </mxGeometry>
        </mxCell>
        <mxCell id="TrryVYuE3cqbA7kc2MsO-34" style="edgeStyle=elbowEdgeStyle;rounded=0;orthogonalLoop=1;jettySize=auto;html=1;entryX=-0.4;entryY=0.445;entryDx=0;entryDy=0;entryPerimeter=0;dashed=1;startArrow=none;startFill=0;exitX=1.1;exitY=0.89;exitDx=0;exitDy=0;exitPerimeter=0;" edge="1" parent="1" source="TrryVYuE3cqbA7kc2MsO-31" target="TrryVYuE3cqbA7kc2MsO-32">
          <mxGeometry relative="1" as="geometry" />
        </mxCell>
        <mxCell id="TrryVYuE3cqbA7kc2MsO-37" value="events" style="edgeLabel;html=1;align=center;verticalAlign=middle;resizable=0;points=[];" vertex="1" connectable="0" parent="TrryVYuE3cqbA7kc2MsO-34">
          <mxGeometry x="-0.1277" y="2" relative="1" as="geometry">
            <mxPoint x="10" y="-6" as="offset" />
          </mxGeometry>
        </mxCell>
        <mxCell id="TrryVYuE3cqbA7kc2MsO-31" value="" style="html=1;points=[];perimeter=orthogonalPerimeter;" vertex="1" parent="1">
          <mxGeometry x="455" y="280" width="10" height="100" as="geometry" />
        </mxCell>
        <mxCell id="TrryVYuE3cqbA7kc2MsO-33" style="edgeStyle=elbowEdgeStyle;rounded=0;orthogonalLoop=1;jettySize=auto;elbow=vertical;html=1;entryX=1.1;entryY=0.1;entryDx=0;entryDy=0;entryPerimeter=0;startArrow=none;startFill=0;" edge="1" parent="1" source="TrryVYuE3cqbA7kc2MsO-32" target="TrryVYuE3cqbA7kc2MsO-31">
          <mxGeometry relative="1" as="geometry" />
        </mxCell>
        <mxCell id="TrryVYuE3cqbA7kc2MsO-36" value="fetch()" style="edgeLabel;html=1;align=center;verticalAlign=middle;resizable=0;points=[];" vertex="1" connectable="0" parent="TrryVYuE3cqbA7kc2MsO-33">
          <mxGeometry x="0.1946" y="2" relative="1" as="geometry">
            <mxPoint x="14" y="-11" as="offset" />
          </mxGeometry>
        </mxCell>
        <mxCell id="TrryVYuE3cqbA7kc2MsO-47" style="edgeStyle=elbowEdgeStyle;rounded=0;orthogonalLoop=1;jettySize=auto;elbow=vertical;html=1;entryX=0.5;entryY=0.462;entryDx=0;entryDy=0;entryPerimeter=0;startArrow=none;startFill=0;" edge="1" parent="1" source="TrryVYuE3cqbA7kc2MsO-32" target="TrryVYuE3cqbA7kc2MsO-46">
          <mxGeometry relative="1" as="geometry" />
        </mxCell>
        <mxCell id="TrryVYuE3cqbA7kc2MsO-54" value="&amp;lt;events&amp;gt;" style="edgeLabel;html=1;align=center;verticalAlign=middle;resizable=0;points=[];" vertex="1" connectable="0" parent="TrryVYuE3cqbA7kc2MsO-47">
          <mxGeometry x="0.0359" relative="1" as="geometry">
            <mxPoint x="-13" y="-9" as="offset" />
          </mxGeometry>
        </mxCell>
        <mxCell id="TrryVYuE3cqbA7kc2MsO-59" style="edgeStyle=elbowEdgeStyle;rounded=0;orthogonalLoop=1;jettySize=auto;html=1;entryX=1.2;entryY=0.17;entryDx=0;entryDy=0;entryPerimeter=0;dashed=1;startArrow=none;startFill=0;" edge="1" parent="1" target="TrryVYuE3cqbA7kc2MsO-58">
          <mxGeometry relative="1" as="geometry">
            <mxPoint x="663" y="432" as="sourcePoint" />
          </mxGeometry>
        </mxCell>
        <mxCell id="TrryVYuE3cqbA7kc2MsO-60" value="unlock()" style="edgeLabel;html=1;align=center;verticalAlign=middle;resizable=0;points=[];" vertex="1" connectable="0" parent="TrryVYuE3cqbA7kc2MsO-59">
          <mxGeometry x="0.5271" relative="1" as="geometry">
            <mxPoint x="55" y="-7" as="offset" />
          </mxGeometry>
        </mxCell>
        <mxCell id="TrryVYuE3cqbA7kc2MsO-32" value="" style="html=1;points=[];perimeter=orthogonalPerimeter;" vertex="1" parent="1">
          <mxGeometry x="665" y="270" width="10" height="220" as="geometry" />
        </mxCell>
        <mxCell id="TrryVYuE3cqbA7kc2MsO-40" value="" style="html=1;points=[];perimeter=orthogonalPerimeter;" vertex="1" parent="1">
          <mxGeometry x="300" y="150" width="10" height="20" as="geometry" />
        </mxCell>
        <mxCell id="TrryVYuE3cqbA7kc2MsO-41" value="saturateEvent(data)" style="edgeStyle=orthogonalEdgeStyle;html=1;align=left;spacingLeft=2;endArrow=block;rounded=0;entryX=1;entryY=0;" edge="1" target="TrryVYuE3cqbA7kc2MsO-40" parent="1">
          <mxGeometry relative="1" as="geometry">
            <mxPoint x="305" y="130" as="sourcePoint" />
            <Array as="points">
              <mxPoint x="335" y="130" />
            </Array>
          </mxGeometry>
        </mxCell>
        <mxCell id="TrryVYuE3cqbA7kc2MsO-45" value="&lt;span&gt;Server&lt;br&gt;&lt;/span&gt;" style="shape=umlLifeline;perimeter=lifelinePerimeter;whiteSpace=wrap;html=1;container=1;collapsible=0;recursiveResize=0;outlineConnect=0;" vertex="1" parent="1">
          <mxGeometry x="920" y="40" width="120" height="480" as="geometry" />
        </mxCell>
        <mxCell id="TrryVYuE3cqbA7kc2MsO-48" style="edgeStyle=elbowEdgeStyle;rounded=0;orthogonalLoop=1;jettySize=auto;elbow=vertical;html=1;entryX=1;entryY=0.718;entryDx=0;entryDy=0;entryPerimeter=0;startArrow=none;startFill=0;dashed=1;" edge="1" parent="1">
          <mxGeometry relative="1" as="geometry">
            <mxPoint x="975" y="422" as="sourcePoint" />
            <mxPoint x="675" y="422.05999999999995" as="targetPoint" />
          </mxGeometry>
        </mxCell>
        <mxCell id="TrryVYuE3cqbA7kc2MsO-56" value="FAILED" style="edgeLabel;html=1;align=center;verticalAlign=middle;resizable=0;points=[];" vertex="1" connectable="0" parent="TrryVYuE3cqbA7kc2MsO-48">
          <mxGeometry x="-0.0002" y="-3" relative="1" as="geometry">
            <mxPoint y="-6" as="offset" />
          </mxGeometry>
        </mxCell>
        <mxCell id="TrryVYuE3cqbA7kc2MsO-46" value="" style="html=1;points=[];perimeter=orthogonalPerimeter;" vertex="1" parent="1">
          <mxGeometry x="975" y="320" width="10" height="130" as="geometry" />
        </mxCell>
        <mxCell id="TrryVYuE3cqbA7kc2MsO-52" value="" style="html=1;points=[];perimeter=orthogonalPerimeter;" vertex="1" parent="1">
          <mxGeometry x="460" y="330" width="10" height="20" as="geometry" />
        </mxCell>
        <mxCell id="TrryVYuE3cqbA7kc2MsO-53" value="lock" style="edgeStyle=orthogonalEdgeStyle;html=1;align=left;spacingLeft=2;endArrow=block;rounded=0;entryX=1;entryY=0;" edge="1" parent="1" target="TrryVYuE3cqbA7kc2MsO-52">
          <mxGeometry relative="1" as="geometry">
            <mxPoint x="465" y="310" as="sourcePoint" />
            <Array as="points">
              <mxPoint x="495" y="310" />
            </Array>
          </mxGeometry>
        </mxCell>
        <mxCell id="TrryVYuE3cqbA7kc2MsO-58" value="" style="html=1;points=[];perimeter=orthogonalPerimeter;" vertex="1" parent="1">
          <mxGeometry x="455" y="420" width="10" height="70" as="geometry" />
        </mxCell>
        <mxCell id="TrryVYuE3cqbA7kc2MsO-62" style="edgeStyle=elbowEdgeStyle;rounded=0;orthogonalLoop=1;jettySize=auto;html=1;entryX=-0.4;entryY=0.445;entryDx=0;entryDy=0;entryPerimeter=0;dashed=1;startArrow=none;startFill=0;exitX=1.1;exitY=0.89;exitDx=0;exitDy=0;exitPerimeter=0;" edge="1" parent="1" source="TrryVYuE3cqbA7kc2MsO-64" target="TrryVYuE3cqbA7kc2MsO-71">
          <mxGeometry relative="1" as="geometry" />
        </mxCell>
        <mxCell id="TrryVYuE3cqbA7kc2MsO-63" value="events" style="edgeLabel;html=1;align=center;verticalAlign=middle;resizable=0;points=[];" vertex="1" connectable="0" parent="TrryVYuE3cqbA7kc2MsO-62">
          <mxGeometry x="-0.1277" y="2" relative="1" as="geometry">
            <mxPoint x="10" y="-6" as="offset" />
          </mxGeometry>
        </mxCell>
        <mxCell id="TrryVYuE3cqbA7kc2MsO-64" value="" style="html=1;points=[];perimeter=orthogonalPerimeter;" vertex="1" parent="1">
          <mxGeometry x="455" y="530" width="10" height="100" as="geometry" />
        </mxCell>
        <mxCell id="TrryVYuE3cqbA7kc2MsO-65" style="edgeStyle=elbowEdgeStyle;rounded=0;orthogonalLoop=1;jettySize=auto;elbow=vertical;html=1;entryX=1.1;entryY=0.1;entryDx=0;entryDy=0;entryPerimeter=0;startArrow=none;startFill=0;" edge="1" parent="1" source="TrryVYuE3cqbA7kc2MsO-71" target="TrryVYuE3cqbA7kc2MsO-64">
          <mxGeometry relative="1" as="geometry" />
        </mxCell>
        <mxCell id="TrryVYuE3cqbA7kc2MsO-66" value="fetch()" style="edgeLabel;html=1;align=center;verticalAlign=middle;resizable=0;points=[];" vertex="1" connectable="0" parent="TrryVYuE3cqbA7kc2MsO-65">
          <mxGeometry x="0.1946" y="2" relative="1" as="geometry">
            <mxPoint x="14" y="-11" as="offset" />
          </mxGeometry>
        </mxCell>
        <mxCell id="TrryVYuE3cqbA7kc2MsO-67" style="edgeStyle=elbowEdgeStyle;rounded=0;orthogonalLoop=1;jettySize=auto;elbow=vertical;html=1;entryX=0.5;entryY=0.462;entryDx=0;entryDy=0;entryPerimeter=0;startArrow=none;startFill=0;" edge="1" parent="1" source="TrryVYuE3cqbA7kc2MsO-71" target="TrryVYuE3cqbA7kc2MsO-74">
          <mxGeometry relative="1" as="geometry" />
        </mxCell>
        <mxCell id="TrryVYuE3cqbA7kc2MsO-68" value="&amp;lt;events&amp;gt;" style="edgeLabel;html=1;align=center;verticalAlign=middle;resizable=0;points=[];" vertex="1" connectable="0" parent="TrryVYuE3cqbA7kc2MsO-67">
          <mxGeometry x="0.0359" relative="1" as="geometry">
            <mxPoint x="-13" y="-9" as="offset" />
          </mxGeometry>
        </mxCell>
        <mxCell id="TrryVYuE3cqbA7kc2MsO-69" style="edgeStyle=elbowEdgeStyle;rounded=0;orthogonalLoop=1;jettySize=auto;html=1;entryX=1.2;entryY=0.17;entryDx=0;entryDy=0;entryPerimeter=0;dashed=1;startArrow=none;startFill=0;" edge="1" parent="1" target="TrryVYuE3cqbA7kc2MsO-77">
          <mxGeometry relative="1" as="geometry">
            <mxPoint x="663" y="682" as="sourcePoint" />
          </mxGeometry>
        </mxCell>
        <mxCell id="TrryVYuE3cqbA7kc2MsO-70" value="release()" style="edgeLabel;html=1;align=center;verticalAlign=middle;resizable=0;points=[];" vertex="1" connectable="0" parent="TrryVYuE3cqbA7kc2MsO-69">
          <mxGeometry x="0.5271" relative="1" as="geometry">
            <mxPoint x="55" y="-7" as="offset" />
          </mxGeometry>
        </mxCell>
        <mxCell id="TrryVYuE3cqbA7kc2MsO-71" value="" style="html=1;points=[];perimeter=orthogonalPerimeter;" vertex="1" parent="1">
          <mxGeometry x="665" y="520" width="10" height="220" as="geometry" />
        </mxCell>
        <mxCell id="TrryVYuE3cqbA7kc2MsO-72" style="edgeStyle=elbowEdgeStyle;rounded=0;orthogonalLoop=1;jettySize=auto;elbow=vertical;html=1;entryX=1;entryY=0.718;entryDx=0;entryDy=0;entryPerimeter=0;startArrow=none;startFill=0;dashed=1;" edge="1" parent="1">
          <mxGeometry relative="1" as="geometry">
            <mxPoint x="975" y="672" as="sourcePoint" />
            <mxPoint x="675" y="672.06" as="targetPoint" />
          </mxGeometry>
        </mxCell>
        <mxCell id="TrryVYuE3cqbA7kc2MsO-73" value="PASSED" style="edgeLabel;html=1;align=center;verticalAlign=middle;resizable=0;points=[];" vertex="1" connectable="0" parent="TrryVYuE3cqbA7kc2MsO-72">
          <mxGeometry x="-0.0002" y="-3" relative="1" as="geometry">
            <mxPoint y="-6" as="offset" />
          </mxGeometry>
        </mxCell>
        <mxCell id="TrryVYuE3cqbA7kc2MsO-74" value="" style="html=1;points=[];perimeter=orthogonalPerimeter;" vertex="1" parent="1">
          <mxGeometry x="975" y="570" width="10" height="130" as="geometry" />
        </mxCell>
        <mxCell id="TrryVYuE3cqbA7kc2MsO-75" value="" style="html=1;points=[];perimeter=orthogonalPerimeter;" vertex="1" parent="1">
          <mxGeometry x="460" y="580" width="10" height="20" as="geometry" />
        </mxCell>
        <mxCell id="TrryVYuE3cqbA7kc2MsO-76" value="lock" style="edgeStyle=orthogonalEdgeStyle;html=1;align=left;spacingLeft=2;endArrow=block;rounded=0;entryX=1;entryY=0;" edge="1" parent="1" target="TrryVYuE3cqbA7kc2MsO-75">
          <mxGeometry relative="1" as="geometry">
            <mxPoint x="465" y="560" as="sourcePoint" />
            <Array as="points">
              <mxPoint x="495" y="560" />
            </Array>
          </mxGeometry>
        </mxCell>
        <mxCell id="TrryVYuE3cqbA7kc2MsO-77" value="" style="html=1;points=[];perimeter=orthogonalPerimeter;" vertex="1" parent="1">
          <mxGeometry x="455" y="670" width="10" height="70" as="geometry" />
        </mxCell>
      </root>
    </mxGraphModel>
  </diagram>
</mxfile>
